<svg width="66" height="62" viewBox="0 0 66 62" fill="none" xmlns="http://www.w3.org/2000/svg">
<path d="M12.3333 14.4868V13.4166C12.3333 9.42064 12.3333 7.42119 13.0842 5.89494C13.7446 4.55242 14.7977 3.46171 16.094 2.77766C17.5676 2 19.4981 2 23.3562 2H52.9785C56.8366 2 58.763 2 60.2366 2.77766C61.5328 3.46171 62.5894 4.55242 63.2499 5.89494C64 7.41969 64 9.41673 64 13.4049V36.9721C64 40.9603 64 42.9544 63.2499 44.4792C62.5894 45.8217 61.5335 46.916 60.2373 47.6001C58.7651 48.377 56.839 48.377 52.9884 48.377H27.8333M2 47.6642V27.6864C2 23.6905 2 21.691 2.75084 20.1648C3.41131 18.8223 4.46441 17.7316 5.76063 17.0475C7.23425 16.2698 9.16476 16.2698 13.0229 16.2698H15.0896C18.9477 16.2698 20.8741 16.2698 22.3477 17.0475C23.6439 17.7316 24.7005 18.8223 25.361 20.1648C26.1111 21.6895 26.1111 23.6866 26.1111 27.6747V47.6745C26.1111 51.6626 26.1111 53.6568 25.361 55.1815C24.7005 56.5241 23.6439 57.6184 22.3477 58.3025C20.8755 59.0794 18.9501 59.0794 15.0995 59.0794H13.0116C9.16098 59.0794 7.23281 59.0794 5.76063 58.3025C4.46441 57.6184 3.41131 56.5241 2.75084 55.1815C2 53.6553 2 51.6601 2 47.6642Z" stroke="black" stroke-width="4" stroke-linecap="round" stroke-linejoin="round"/>
</svg>
