<svg width="62" height="62" viewBox="0 0 62 62" fill="none" xmlns="http://www.w3.org/2000/svg">
<g id="System / Window_Code_Block">
<path id="Vector" d="M7.75 15.5H7.79958M7.79958 15.5H54.2007M7.79958 15.5C7.75 16.3122 7.75 17.3133 7.75 18.6005V43.4006C7.75 46.2942 7.75 47.7389 8.31313 48.8441C8.80848 49.8163 9.5983 50.6088 10.5705 51.1041C11.6746 51.6667 13.1208 51.6667 16.0088 51.6667L45.9913 51.6667C48.8793 51.6667 50.3233 51.6667 51.4274 51.1041C52.3996 50.6088 53.1921 49.8163 53.6874 48.8441C54.25 47.74 54.25 46.2959 54.25 43.4079L54.25 18.5921C54.25 17.3089 54.25 16.3104 54.2007 15.5M7.79958 15.5C7.86144 14.4866 8.00051 13.7674 8.31313 13.1538C8.80848 12.1817 9.5983 11.3919 10.5705 10.8965C11.6757 10.3334 13.1236 10.3334 16.0172 10.3334H45.9838C48.8774 10.3334 50.3222 10.3334 51.4274 10.8965C52.3996 11.3919 53.1921 12.1817 53.6874 13.1538C54 13.7674 54.1389 14.4866 54.2007 15.5M54.2007 15.5H54.25M36.1667 28.4167L41.3333 33.5834L36.1667 38.75M25.8333 38.75L20.6667 33.5834L25.8333 28.4167" stroke="#0A7CFF" stroke-width="3" stroke-linecap="round" stroke-linejoin="round"/>
</g>
</svg>
